REM DIRINDEX 1\2,1\4,1\3\5,1\3\6,1\3\7
REM DIRNAME folder01,folder02,folder03,folder04,folder05,folder06,folder07
TITLE ""
FILE "CD1Track30.mp3" MP3
  TRACK 01 AUDIO
    TITLE "0:"
    INDEX 01 00:00:00
  TRACK 02 AUDIO
    TITLE "5:cjc083_0621"
    INDEX 01 00:00:29
  TRACK 03 AUDIO
    TITLE "0:"
    INDEX 01 00:01:73
  TRACK 04 AUDIO
    TITLE "6:cjc083_0622"
    INDEX 01 00:02:49
  TRACK 05 AUDIO
    TITLE "0:"
    INDEX 01 00:04:40
  TRACK 06 AUDIO
    TITLE "5:cjc083_0623"
    INDEX 01 00:05:01
  TRACK 07 AUDIO
    TITLE "0:"
    INDEX 01 00:06:35
  TRACK 08 AUDIO
    TITLE "6:cjc083_0624"
    INDEX 01 00:07:00
  TRACK 09 AUDIO
    TITLE "0:"
    INDEX 01 00:08:21
  TRACK 10 AUDIO
    TITLE "5:cjc083_0625"
    INDEX 01 00:08:64
  TRACK 11 AUDIO
    TITLE "0:"
    INDEX 01 00:10:21
  TRACK 12 AUDIO
    TITLE "6:cjc083_0626"
    INDEX 01 00:10:65
  TRACK 13 AUDIO
    TITLE "0:"
    INDEX 01 00:12:07
  TRACK 14 AUDIO
    TITLE "5:cjc083_0627"
    INDEX 01 00:12:54
  TRACK 15 AUDIO
    TITLE "0:"
    INDEX 01 00:14:04
  TRACK 16 AUDIO
    TITLE "6:cjc083_0628"
    INDEX 01 00:14:51
  TRACK 17 AUDIO
    TITLE "0:"
    INDEX 01 00:15:66
  TRACK 18 AUDIO
    TITLE "5:cjc083_0629"
    INDEX 01 00:16:38
  TRACK 19 AUDIO
    TITLE "0:"
    INDEX 01 00:17:59
  TRACK 20 AUDIO
    TITLE "6:cjc083_0630"
    INDEX 01 00:18:29
  TRACK 21 AUDIO
    TITLE "0:"
    INDEX 01 00:19:56
  TRACK 22 AUDIO
    TITLE "5:cjc083_0631"
    INDEX 01 00:20:22
  TRACK 23 AUDIO
    TITLE "0:"
    INDEX 01 00:21:43
  TRACK 24 AUDIO
    TITLE "6:cjc083_0632"
    INDEX 01 00:22:05
  TRACK 25 AUDIO
    TITLE "0:"
    INDEX 01 00:23:40
  TRACK 26 AUDIO
    TITLE "5:cjc083_0633"
    INDEX 01 00:24:00
  TRACK 27 AUDIO
    TITLE "0:"
    INDEX 01 00:25:31
  TRACK 28 AUDIO
    TITLE "6:cjc083_0634"
    INDEX 01 00:26:01
  TRACK 29 AUDIO
    TITLE "0:"
    INDEX 01 00:27:20
  TRACK 30 AUDIO
    TITLE "5:cjc083_0635"
    INDEX 01 00:27:59
  TRACK 31 AUDIO
    TITLE "0:"
    INDEX 01 00:28:72
  TRACK 32 AUDIO
    TITLE "6:cjc083_0636"
    INDEX 01 00:29:46
  TRACK 33 AUDIO
    TITLE "0:"
    INDEX 01 00:30:63
  TRACK 34 AUDIO
    TITLE "5:cjc083_0637"
    INDEX 01 00:31:31
  TRACK 35 AUDIO
    TITLE "0:"
    INDEX 01 00:32:54
  TRACK 36 AUDIO
    TITLE "6:cjc083_0638"
    INDEX 01 00:33:28
  TRACK 37 AUDIO
    TITLE "0:"
    INDEX 01 00:34:55
  TRACK 38 AUDIO
    TITLE "5:cjc083_0639"
    INDEX 01 00:35:33
  TRACK 39 AUDIO
    TITLE "0:"
    INDEX 01 00:36:70
  TRACK 40 AUDIO
    TITLE "6:cjc083_0640"
    INDEX 01 00:37:38
  TRACK 41 AUDIO
    TITLE "0:"
    INDEX 01 00:39:09
  TRACK 42 AUDIO
    TITLE "5:cjc083_0641"
    INDEX 01 00:39:51
  TRACK 43 AUDIO
    TITLE "0:"
    INDEX 01 00:41:12
  TRACK 44 AUDIO
    TITLE "6:cjc083_0642"
    INDEX 01 00:41:51
  TRACK 45 AUDIO
    TITLE "0:"
    INDEX 01 00:43:52
  TRACK 46 AUDIO
    TITLE "5:cjc083_0643"
    INDEX 01 00:44:18
  TRACK 47 AUDIO
    TITLE "0:"
    INDEX 01 00:45:41
  TRACK 48 AUDIO
    TITLE "6:cjc083_0644"
    INDEX 01 00:46:09
  TRACK 49 AUDIO
    TITLE "0:"
    INDEX 01 00:47:64
  TRACK 50 AUDIO
    TITLE "5:cjc083_0645"
    INDEX 01 00:48:22
  TRACK 51 AUDIO
    TITLE "0:"
    INDEX 01 00:49:39
  TRACK 52 AUDIO
    TITLE "6:cjc083_0646"
    INDEX 01 00:50:05
  TRACK 53 AUDIO
    TITLE "0:"
    INDEX 01 00:52:08
  TRACK 54 AUDIO
    TITLE "5:cjc083_0647"
    INDEX 01 00:52:49
  TRACK 55 AUDIO
    TITLE "0:"
    INDEX 01 00:53:70
  TRACK 56 AUDIO
    TITLE "6:cjc083_0648"
    INDEX 01 00:54:46
  TRACK 57 AUDIO
    TITLE "0:"
    INDEX 01 00:56:16
  TRACK 58 AUDIO
    TITLE "7:cjc083_0649"
    INDEX 01 00:56:61
  TRACK 59 AUDIO
    TITLE "0:"
    INDEX 01 01:07:19
